<?xml version="1.0" encoding="iso-8859-1"?>
<!-- Uploaded to: SVG Repo, www.svgrepo.com, Generator: SVG Repo Mixer Tools -->
<svg height="800px" width="800px" version="1.1" id="Layer_1" xmlns="http://www.w3.org/2000/svg" xmlns:xlink="http://www.w3.org/1999/xlink" 
	 viewBox="0 0 512.001 512.001" xml:space="preserve">
<path style="fill:#DEC33D;" d="M411.813,212.139c-11.026-22.588-27.216-42.088-46.209-58.554
	c-14.589-12.644-35.218-38.233-45.731-86.573C302.56-12.608,256.19,0.861,256.19,0.861s-46.373-13.469-63.687,66.152
	c-10.512,48.34-31.142,73.929-45.731,86.573c-18.993,16.463-35.186,35.966-46.209,58.554
	c-20.922,42.864-40.739,111.128-13.725,189.985c0,0,64.823,165.924,169.352,89.064c104.529,76.86,169.348-89.064,169.348-89.064
	C452.553,323.268,432.732,255.007,411.813,212.139z"/>
<path style="opacity:0.1;enable-background:new    ;" d="M152.037,171.05c0,0-96.019,86.075-34.455,222.635
	c35.244,78.176,105.707,98.632,176.423,93.593c-56.577-4.494-108.695-29.884-137.417-93.593
	C95.024,257.129,191.043,171.05,191.043,171.05s50.356-26.504,50.356-95.416c0-36.743,13.555-60.576,26.215-74.915
	c-7.033-0.735-11.803,0.632-11.803,0.632s-17.503-5.049-35.016,9.492c-9.851,14.63-18.405,35.642-18.405,64.791
	C202.396,144.546,152.037,171.05,152.037,171.05z"/>
<path style="opacity:0.2;enable-background:new    ;" d="M294.006,487.278c-70.716,5.036-141.179-15.417-176.423-93.593
	C56.018,257.129,152.037,171.05,152.037,171.05s50.356-26.504,50.356-95.416c0-29.149,8.554-50.16,18.405-64.791
	c-10.994,9.129-21.994,25.955-28.67,56.66c-10.512,48.34-31.142,73.929-45.731,86.573c-18.993,16.463-35.186,35.966-46.209,58.554
	c-20.922,42.864-40.739,111.128-13.725,189.985c0,0,64.823,165.924,169.352,89.064c49.079,36.088,89.401,18.652,118.373-9.999
	C347.767,486.922,320.407,489.374,294.006,487.278z"/>
<g style="opacity:0.3;">
	<circle style="fill:#FFFFFF;" cx="378.348" cy="211.799" r="21.394"/>
	<circle style="fill:#FFFFFF;" cx="403.705" cy="257.784" r="10.698"/>
</g>
</svg>