<?xml version="1.0" encoding="iso-8859-1"?>
<!-- Uploaded to: SVG Repo, www.svgrepo.com, Generator: SVG Repo Mixer Tools -->
<svg height="800px" width="800px" version="1.1" id="Layer_1" xmlns="http://www.w3.org/2000/svg" xmlns:xlink="http://www.w3.org/1999/xlink" 
	 viewBox="0 0 512 512" xml:space="preserve">
<path style="fill:#9AD14B;" d="M301.8,130.782l1.413,2.986c-0.737,0.5-5.249,2.687-5.974,3.224l-13.747-6.248
	c-3.824-4.336-11.56-1.375-20.045,3.562c-8.173,4.724-17.021,11.272-23.719,14.846c-2.962,1.562-5.486,2.549-7.361,2.549
	c-3.674,0-4.736-5.349-5.436-10.685c-0.862-6.623-1.187-13.222-5.299-9.648l7.361-37.553c5.836-27.906,19.595-54.737,41.065-77.856
	c2.937,2.025,5.874,4.049,8.81,6.074c11.897,8.198,23.794,16.396,35.679,24.594c-0.141,0.152-0.284,0.306-0.424,0.459
	C293.287,69.753,288.621,102.955,301.8,130.782z"/>
<path style="fill:#90BC42;" d="M263.448,134.305c4.149,23.119-6.898,24.107-23.719,14.846c-3.987-2.187-8.285-4.961-12.797-8.136
	c-0.862-6.623-1.187-13.222-5.299-9.648l7.361-37.553c5.836-27.906,19.595-54.737,41.065-77.856c2.937,2.025,5.874,4.049,8.81,6.074
	c-9.485,13.022-29.08,48.788-15.996,109.336C263.098,132.38,263.286,133.367,263.448,134.305z"/>
<path style="fill:#F7B239;" d="M406.938,114.622c-2.087,0-4.149,0.1-6.198,0.312c-7.298,0.712-14.396,2.674-21.232,5.774
	c-16.309-20.083-35.704-31.717-56.486-31.717c-6.961,0-13.759,1.3-20.333,3.799c-5.061,1.9-9.998,4.524-14.771,7.798
	c-0.737,0.5-3.687,2.237-3.687,2.237c-9.135-10.36-19.183-16.084-29.718-16.084c-8.235,0-16.171,3.499-23.594,9.96
	c-1.762,1.525-3.487,3.212-5.186,5.061c-11.422-8.26-23.832-12.772-36.766-12.772c-20.782,0-20.782,404.789,0,404.789
	c12.934,0,25.344-4.499,36.766-12.759c8.885,9.685,18.608,15.021,28.78,15.021c10.535,0,20.582-5.724,29.718-16.084
	c1.972-2.236,1.972-2.236,0,0l1.5,0.687c5.449,3.999,11.122,7.148,16.958,9.348c6.573,2.487,13.372,3.787,20.333,3.787
	c20.782,0,40.178-11.622,56.486-31.705c6.836,3.099,13.934,5.061,21.232,5.774c2.05,0.212,4.112,0.312,6.198,0.312
	c58.023,0,105.062-79.156,105.062-176.769C512,193.765,464.961,114.622,406.938,114.622z"/>
<g>
	<path style="fill:#E09B2D;" d="M200.505,291.391c0-85.742-2.678-159.174,25.229-189.629c-11.422-8.26-23.832-12.772-36.766-12.772
		c-20.782,0-40.165,11.635-56.486,31.717c-8.748-3.962-17.946-6.086-27.431-6.086C47.039,114.622,0,193.765,0,291.391
		c0,97.614,47.039,176.769,105.049,176.769c9.485,0,18.683-2.124,27.431-6.086c16.321,20.083,35.704,31.705,56.486,31.705
		c12.934,0,25.344-4.499,36.766-12.759C197.827,450.565,200.505,377.133,200.505,291.391z"/>
	<path style="fill:#E09B2D;" d="M454.327,291.391c0,71.72-19.358,134.73-48.576,170.683c-1.637,2.012-3.299,3.937-5.011,5.774
		c-7.298-0.712-14.396-2.674-21.232-5.774c29.218-35.954,48.576-98.963,48.576-170.683s-19.358-134.742-48.576-170.683
		c6.836-3.099,13.934-5.061,21.232-5.774c1.712,1.837,3.374,3.762,5.011,5.774C434.969,156.649,454.327,219.671,454.327,291.391z"/>
	<path style="fill:#E09B2D;" d="M360.562,291.391c0,84.767-19.233,157.499-46.639,188.566c-3.612,4.086-7.361,7.461-11.235,10.035
		c-5.836-2.199-11.51-5.349-16.958-9.348l-1.5-0.687c27.406-31.067,46.639-103.8,46.639-188.566s-19.233-157.499-46.639-188.566
		l1.5-0.687c0.725-0.537,1.45-1.05,2.187-1.55c4.774-3.274,9.71-5.899,14.771-7.798c3.874,2.574,7.623,5.949,11.235,10.035
		C341.329,133.892,360.562,206.625,360.562,291.391z"/>
</g>
</svg>